<svg width="28" height="28" viewBox="0 0 28 28" fill="none" xmlns="http://www.w3.org/2000/svg"><mask id="a" style="mask-type:alpha" maskUnits="userSpaceOnUse" x="0" y="0" width="28" height="28"><rect width="28" height="28" rx="8" fill="#F8F9FE"/></mask><path fill-rule="evenodd" clip-rule="evenodd" d="M20.54 10.277l-6.38-6.464a1.274 1.274 0 0 0-1.812-.001L2.95 13.296l22.98-.604-15.994-.96 2.483-2.72a1.274 1.274 0 0 1 1.774-.106l1.587 1.371h4.76z" fill="#44D7B6"/><path opacity=".2" fill-rule="evenodd" clip-rule="evenodd" d="M8.34 17.533l6.38 6.464a1.274 1.274 0 0 0 1.812.002l9.398-9.485-22.98.604 15.995.96-2.484 2.72a1.274 1.274 0 0 1-1.773.106L13.1 17.533H8.34z" fill="#000"/></svg>