<svg width="20" height="20" viewBox="0 0 20 20" fill="none" xmlns="http://www.w3.org/2000/svg">
<path fill-rule="evenodd" clip-rule="evenodd" d="M8.57177 0.825167C9.45577 0.314788 10.5449 0.314788 11.4289 0.825167L17.232 4.17559C18.116 4.68597 18.6606 5.62919 18.6606 6.64995V13.3508C18.6606 14.3716 18.116 15.3148 17.232 15.8252L11.4289 19.1756C10.5449 19.686 9.45577 19.686 8.57177 19.1756L2.76866 15.8252C1.88466 15.3148 1.34009 14.3716 1.34009 13.3508V6.64995C1.34009 5.62919 1.88466 4.68597 2.76866 4.17559L8.57177 0.825167Z" fill="#F0B90B"/>
<path d="M10.0004 4.85742L7.42896 6.42221L8.37433 7.00028L10.0004 6.01357L11.6264 7.00028L12.5718 6.42221L10.0004 4.85742Z" fill="white"/>
<path d="M11.6264 7.85742L12.5718 8.42131V9.54904L10.9458 10.5115V12.4364L10.0004 13.0003L9.055 12.4364V10.5115L7.42896 9.54904V8.42131L8.37433 7.85742L10.0004 8.81991L11.6264 7.85742Z" fill="white"/>
<path d="M12.5717 10V11.1429L11.7146 11.7143V10.5714L12.5717 10Z" fill="white"/>
<path d="M11.7146 12.6968L13.3406 11.7059V9.72408L14.286 9.14355V12.2864L11.7146 13.8578V12.6968Z" fill="white"/>
<path d="M13 7.6437L12.1428 7.10798L13 6.57227L13.8571 7.10798V8.17941L13 8.71512V7.6437Z" fill="white"/>
<path d="M9.14282 14.1438V13.001L9.99995 13.5724L10.8571 13.001V14.1438L9.99995 14.7153L9.14282 14.1438Z" fill="white"/>
<path d="M8.2861 11.7143L7.42896 11.1429V10L8.2861 10.5714V11.7143Z" fill="white"/>
<path d="M9.99995 7.85798L9.14282 7.21512L9.99995 6.57227L10.8571 7.21512L9.99995 7.85798Z" fill="white"/>
<path d="M7.42864 7.10798L6.5715 7.6437V8.71512L5.71436 8.17941V7.10798L6.5715 6.57227L7.42864 7.10798Z" fill="white"/>
<path d="M5.71436 9.14355L6.65974 9.72408V11.7059L8.28578 12.6968V13.8578L5.71436 12.2864V9.14355Z" fill="white"/>
</svg>
