<svg width="20" height="20" viewBox="0 0 20 20" fill="none" xmlns="http://www.w3.org/2000/svg">
<path fill-rule="evenodd" clip-rule="evenodd" d="M8.57177 0.823214C9.45577 0.312835 10.5449 0.312835 11.4289 0.823214L17.232 4.17364C18.116 4.68402 18.6606 5.62724 18.6606 6.648V13.3489C18.6606 14.3696 18.116 15.3128 17.232 15.8232L11.4289 19.1736C10.5449 19.684 9.45577 19.684 8.57177 19.1736L2.76866 15.8232C1.88466 15.3128 1.34009 14.3696 1.34009 13.3489V6.648C1.34009 5.62724 1.88466 4.68402 2.76866 4.17364L8.57177 0.823214Z" fill="white"/>
<path fill-rule="evenodd" clip-rule="evenodd" d="M16.8035 4.91595L11.0003 1.56552C10.3815 1.20826 9.61914 1.20826 9.00034 1.56552L3.19723 4.91595C2.57843 5.27322 2.19723 5.93347 2.19723 6.648V13.3489C2.19723 14.0634 2.57843 14.7236 3.19723 15.0809L9.00034 18.4313C9.61914 18.7886 10.3815 18.7886 11.0003 18.4313L16.8035 15.0809C17.4223 14.7236 17.8035 14.0634 17.8035 13.3489V6.648C17.8035 5.93347 17.4223 5.27322 16.8035 4.91595ZM11.4289 0.823214C10.5449 0.312835 9.45577 0.312835 8.57177 0.823214L2.76866 4.17364C1.88466 4.68402 1.34009 5.62724 1.34009 6.648V13.3489C1.34009 14.3696 1.88466 15.3128 2.76866 15.8232L8.57177 19.1736C9.45577 19.684 10.5449 19.684 11.4289 19.1736L17.232 15.8232C18.116 15.3128 18.6606 14.3696 18.6606 13.3489V6.648C18.6606 5.62724 18.116 4.68402 17.232 4.17364L11.4289 0.823214Z" fill="#3AB83A"/>
<path d="M6.57007 10.504C7.77842 11.1643 9.0393 11.8555 10.0132 12.3903L13.4281 10.504C12.1916 12.3942 11.1613 13.9678 10.0132 15.7093C8.86294 13.9716 7.59268 12.0542 6.57007 10.504ZM6.70141 9.98264L10.0169 8.16217L13.2892 9.96933L10.0188 11.7918L6.70141 9.98264ZM10.0132 7.57891L6.57007 9.44402L9.99813 4.2793L13.4281 9.45559L10.0132 7.57891Z" fill="#3AB83A"/>
<path d="M10.0131 12.3903L13.428 10.504C12.1915 12.3942 10.0131 15.7093 10.0131 15.7093V12.3903ZM10.0168 8.16217L13.2891 9.96933L10.0187 11.7918L10.0168 8.16217ZM10.0131 7.57905L9.99805 4.2793L13.428 9.45559L10.0131 7.57905Z" fill="#0B8311"/>
<path d="M6.70117 9.98227L10.0168 10.2623L13.2892 9.9707L10.0185 11.7933L6.70117 9.98227Z" fill="#0B8311"/>
<path d="M10.0168 10.2623L13.2892 9.9707L10.0187 11.7933L10.0168 10.2623Z" fill="#146714"/>
</svg>
