<svg width="20" height="20" viewBox="0 0 20 20" fill="none" xmlns="http://www.w3.org/2000/svg">
<path fill-rule="evenodd" clip-rule="evenodd" d="M8.57165 0.825167C9.45565 0.314788 10.5448 0.314788 11.4288 0.825167L17.2319 4.1756C18.1159 4.68598 18.6605 5.6292 18.6605 6.64995V13.3508C18.6605 14.3716 18.1159 15.3148 17.2319 15.8252L11.4288 19.1756C10.5448 19.686 9.45565 19.686 8.57165 19.1756L2.76854 15.8252C1.88453 15.3148 1.33997 14.3716 1.33997 13.3508V6.64995C1.33997 5.62919 1.88453 4.68598 2.76854 4.1756L8.57165 0.825167Z" fill="white"/>
<path fill-rule="evenodd" clip-rule="evenodd" d="M16.8033 4.9179L11.0002 1.56747C10.3814 1.21021 9.61902 1.21021 9.00022 1.56747L3.19711 4.9179C2.57831 5.27517 2.19711 5.93542 2.19711 6.64995V13.3508C2.19711 14.0653 2.57831 14.7256 3.19711 15.0829L9.00022 18.4333C9.61902 18.7906 10.3814 18.7906 11.0002 18.4333L16.8033 15.0829C17.4221 14.7256 17.8033 14.0653 17.8033 13.3508V6.64995C17.8033 5.93542 17.4221 5.27517 16.8033 4.9179ZM11.4288 0.825167C10.5448 0.314788 9.45565 0.314788 8.57165 0.825167L2.76854 4.1756C1.88453 4.68597 1.33997 5.62919 1.33997 6.64995V13.3508C1.33997 14.3716 1.88453 15.3148 2.76854 15.8252L8.57165 19.1756C9.45565 19.686 10.5448 19.686 11.4288 19.1756L17.2319 15.8252C18.1159 15.3148 18.6605 14.3716 18.6605 13.3508V6.64995C18.6605 5.6292 18.1159 4.68597 17.2319 4.1756L11.4288 0.825167Z" fill="#44D7B6"/>
<path fill-rule="evenodd" clip-rule="evenodd" d="M6.12793 12.6206L9.82943 16.322L13.5544 12.597L12.3199 11.3625L9.84405 13.8385L8.6128 12.6074L11.0887 10.1314L9.85306 8.89551L6.12793 12.6206Z" fill="#231916"/>
<path fill-rule="evenodd" clip-rule="evenodd" d="M9.87237 3.91211L4.90649 8.87798L4.92324 11.3377L9.84999 6.41111L14.7962 11.3574L14.805 8.84473L9.87237 3.91211Z" fill="#38A0DA"/>
</svg>
