<svg width="24" height="24" viewBox="0 0 24 24" fill="none" xmlns="http://www.w3.org/2000/svg">
<path fill-rule="evenodd" clip-rule="evenodd" d="M10.2861 0.990103C11.3469 0.377648 12.6538 0.377648 13.7146 0.990103L20.6784 5.01062C21.7392 5.62307 22.3926 6.75494 22.3926 7.97985V16.0209C22.3926 17.2458 21.7392 18.3776 20.6784 18.9901L13.7146 23.0106C12.6538 23.6231 11.3469 23.6231 10.2861 23.0106L3.32232 18.9901C2.26151 18.3776 1.60803 17.2458 1.60803 16.0209V7.97985C1.60803 6.75494 2.26151 5.62307 3.32232 5.01062L10.2861 0.990103Z" fill="white"/>
<path fill-rule="evenodd" clip-rule="evenodd" d="M20.1641 5.90139L13.2003 1.88087C12.4578 1.45215 11.5429 1.45215 10.8003 1.88087L3.8366 5.90139C3.09404 6.33011 2.6366 7.12241 2.6366 7.97985V16.0209C2.6366 16.8783 3.09404 17.6706 3.8366 18.0993L10.8003 22.1199C11.5429 22.5486 12.4578 22.5486 13.2003 22.1199L20.1641 18.0993C20.9066 17.6706 21.3641 16.8783 21.3641 16.0209V7.97985C21.3641 7.12241 20.9066 6.33011 20.1641 5.90139ZM13.7146 0.990103C12.6538 0.377648 11.3469 0.377648 10.2861 0.990103L3.32232 5.01062C2.26151 5.62307 1.60803 6.75494 1.60803 7.97985V16.0209C1.60803 17.2458 2.26151 18.3776 3.32232 18.9901L10.2861 23.0106C11.3469 23.6231 12.6538 23.6231 13.7146 23.0106L20.6784 18.9901C21.7392 18.3776 22.3926 17.2458 22.3926 16.0209V7.97985C22.3926 6.75494 21.7392 5.62307 20.6784 5.01062L13.7146 0.990103Z" fill="#44D7B6"/>
<path fill-rule="evenodd" clip-rule="evenodd" d="M7.35352 15.145L11.7953 19.5866L16.2653 15.1166L14.7839 13.6352L11.8129 16.6064L10.3354 15.1291L13.3064 12.1579L11.8237 10.6748L7.35352 15.145Z" fill="#231916"/>
<path fill-rule="evenodd" clip-rule="evenodd" d="M11.8469 4.69482L5.88782 10.6539L5.90792 13.6056L11.82 7.69362L17.7555 13.6291L17.766 10.614L11.8469 4.69482Z" fill="#38A0DA"/>
</svg>
