<svg class="icon" viewBox="0 0 1024 1024" xmlns="http://www.w3.org/2000/svg" width="16" height="16"><path d="M896 435.2a25.6 25.6 0 0 1-25.6-25.6v-256H640a25.6 25.6 0 1 1 0-51.2h256a25.6 25.6 0 0 1 25.6 25.6v281.6a25.6 25.6 0 0 1-25.6 25.6zm-51.2 486.4H128a25.6 25.6 0 0 1-25.6-25.6V179.2a25.6 25.6 0 0 1 25.6-25.6h358.4a25.6 25.6 0 1 1 0 51.2H153.6v665.6h665.6V537.6a25.6 25.6 0 1 1 51.2 0V896a25.6 25.6 0 0 1-25.6 25.6z" fill="#898D9A"/><path d="M533.952 515.648a25.6 25.6 0 0 1-18.112-43.712l362.048-362.048a25.6 25.6 0 0 1 36.224 36.224L552.064 508.16a25.472 25.472 0 0 1-18.112 7.488z" fill="#898D9A"/></svg>