<svg class="icon" viewBox="0 0 1024 1024" xmlns="http://www.w3.org/2000/svg" width="16" height="16"><path d="M546.133 64c4.694 0 8.534 3.84 8.534 8.533v46.934a8.533 8.533 0 0 1-8.534 8.533H234.667a106.667 106.667 0 0 0-106.56 102.037l-.107 4.63v554.666a106.667 106.667 0 0 0 102.037 106.56l4.63.107h554.666a106.667 106.667 0 0 0 106.56-102.037l.107-4.63V477.867c0-4.694 3.84-8.534 8.533-8.534h46.934c4.693 0 8.533 3.84 8.533 8.534v311.466A170.667 170.667 0 0 1 789.333 960H234.667A170.667 170.667 0 0 1 64 789.333V234.667A170.667 170.667 0 0 1 234.667 64h311.466zM780.8 64c4.693 0 8.533 3.84 8.533 8.533v162.134h162.134c4.693 0 8.533 3.84 8.533 8.533v46.933a8.533 8.533 0 0 1-8.533 8.534H789.333V460.8a8.533 8.533 0 0 1-6.826 8.363l-1.707.17h-46.933a8.533 8.533 0 0 1-8.534-8.533V298.667H563.2a8.533 8.533 0 0 1-8.533-8.534V243.2c0-4.693 3.84-8.533 8.533-8.533h162.133V72.533a8.533 8.533 0 0 1 6.827-8.362l1.707-.171z" fill="#898D9A"/></svg>