<svg width="18" height="18" viewBox="0 0 18 18" fill="none" xmlns="http://www.w3.org/2000/svg">
<rect width="18" height="18" rx="9" fill="#DDDDDD"/>
<mask id="mask0_8119_3631" style="mask-type:luminance" maskUnits="userSpaceOnUse" x="0" y="0" width="18" height="18">
<rect width="18" height="18" rx="9" fill="white"/>
</mask>
<g mask="url(#mask0_8119_3631)">
<path d="M10.3073 8.94328L14.0305 5.22012C14.201 5.04959 14.201 4.7938 14.0305 4.62328L13.4336 4.02643C13.2631 3.85591 13.0073 3.85591 12.8368 4.02643L9.11363 7.74959C8.99995 7.86328 8.82942 7.86328 8.71574 7.74959L4.99258 3.99801C4.82205 3.82749 4.56626 3.82749 4.39574 3.99801L3.79889 4.59485C3.62837 4.76538 3.62837 5.02117 3.79889 5.1917L7.52205 8.91485C7.63574 9.02854 7.63574 9.19906 7.52205 9.31275L3.77047 13.0643C3.59995 13.2349 3.59995 13.4906 3.77047 13.6612L4.36731 14.258C4.53784 14.4285 4.79363 14.4285 4.96416 14.258L8.71574 10.5349C8.82942 10.4212 8.99995 10.4212 9.11363 10.5349L12.8368 14.258C13.0073 14.4285 13.2631 14.4285 13.4336 14.258L14.0305 13.6612C14.201 13.4906 14.201 13.2349 14.0305 13.0643L10.3073 9.34117C10.2221 9.22749 10.2221 9.05696 10.3073 8.94328Z" fill="white"/>
</g>
</svg>
