<svg width="48" height="48" viewBox="0 0 48 48" fill="none" xmlns="http://www.w3.org/2000/svg"><mask id="a" style="mask-type:alpha" maskUnits="userSpaceOnUse" x="0" y="0" width="48" height="48"><path fill="#C4C4C4" d="M0 0h48v48H0z"/></mask><g mask="url(#a)"><path fill-rule="evenodd" clip-rule="evenodd" d="M24 44c11.046 0 20-8.954 20-20S35.046 4 24 4 4 12.954 4 24s8.954 20 20 20z" fill="#F0955F"/><path d="M24 14c.855 0 1.56.643 1.656 1.472l.011.195V29a1.667 1.667 0 0 1-3.322.194L22.334 29V15.667c0-.92.746-1.667 1.667-1.667z" fill="#fff"/><path fill-rule="evenodd" clip-rule="evenodd" d="M24 35.667a1.667 1.667 0 1 0 0-3.334 1.667 1.667 0 0 0 0 3.334z" fill="#fff"/></g></svg>