<svg width="28" height="28" viewBox="0 0 28 28" fill="none" xmlns="http://www.w3.org/2000/svg"><path fill="#FCFAF8" d="M0 0h28v28H0z"/><path d="M4.25 11.602l.67-.562 7.122 8.49-.67.562-7.123-8.49zm11.71 7.93l7.122-8.49.67.562-7.12 8.49-.672-.562zm-2.398-9.798h.876V19.81h-.876V9.734z" fill="#FAC26D"/><path d="M5.578 11.65a4.14 4.14 0 0 1 2.581.81.35.35 0 0 0 .438 0 4.14 4.14 0 0 1 2.581-.81 4.14 4.14 0 0 1 2.581.81.355.355 0 0 0 .438 0 4.14 4.14 0 0 1 2.581-.81 4.14 4.14 0 0 1 2.581.81.35.35 0 0 0 .438 0 4.14 4.14 0 0 1 2.581-.81c.421 0 .84.054 1.247.162a.385.385 0 0 0 .477-.472 10.439 10.439 0 0 0-20.213 0 .385.385 0 0 0 .486.473 4.816 4.816 0 0 1 1.203-.162z" fill="#FFD953"/><path d="M10.526 17.911h6.948c.108 0 .162.054.162.162v6.265c0 .108-.054.162-.162.162h-6.948c-.108 0-.162-.054-.162-.162v-6.265c0-.108.054-.162.162-.162z" fill="#EA801E"/><path d="M12.954 17.911h2.092v1.523a.354.354 0 0 1-.355.354H13.31a.354.354 0 0 1-.355-.354V17.91z" fill="#EDA875"/></svg>