<svg width="89" height="15" viewBox="0 0 89 15" fill="none" xmlns="http://www.w3.org/2000/svg"><path d="M4.116 14.8a3.727 3.727 0 0 1-1.982-.55 4.084 4.084 0 0 1-1.416-1.47A4.19 4.19 0 0 1 .2 10.71L.22 4.44c0-.745.169-1.419.507-2.02A3.95 3.95 0 0 1 2.124.959 3.695 3.695 0 0 1 4.116.4c.742 0 1.403.18 1.982.54.586.36 1.052.846 1.397 1.461.351.608.527 1.288.527 2.04v.922c0 .053-.026.079-.078.079H5.698c-.052 0-.078-.026-.078-.079v-.922c0-.444-.143-.827-.43-1.147a1.381 1.381 0 0 0-1.074-.48c-.475 0-.84.163-1.094.49-.254.327-.38.706-.38 1.137v6.269c0 .49.143.892.43 1.206.286.307.634.461 1.044.461.43 0 .788-.17 1.074-.51.287-.347.43-.732.43-1.158v-.931c0-.053.026-.079.078-.079h2.266c.052 0 .078.026.078.079v.931a4.11 4.11 0 0 1-.528 2.06 4.28 4.28 0 0 1-1.416 1.482 3.663 3.663 0 0 1-1.982.549zM13.198 14.8c-.71 0-1.364-.183-1.963-.55A4.274 4.274 0 0 1 9.8 12.79a3.943 3.943 0 0 1-.537-2.022l.019-6.366c0-.745.18-1.416.537-2.01A4.026 4.026 0 0 1 11.245.948 3.675 3.675 0 0 1 13.198.4c.73 0 1.383.18 1.963.54.586.36 1.055.843 1.406 1.451.358.602.537 1.272.537 2.011l.02 6.366c0 .733-.176 1.403-.527 2.011a4.164 4.164 0 0 1-1.426 1.472c-.593.366-1.25.549-1.973.549zm0-2.423c.404 0 .755-.163 1.055-.49.3-.334.449-.707.449-1.119l-.02-6.366c0-.445-.14-.82-.42-1.128a1.377 1.377 0 0 0-1.064-.46c-.41 0-.762.15-1.055.45-.293.301-.44.68-.44 1.138v6.366c0 .438.147.818.44 1.138.293.314.645.471 1.055.471zM20.815 14.604h-2.002c-.104 0-.156-.046-.156-.137L18.637.783c0-.105.053-.157.157-.157H20.6l3.38 7.916-.098-7.76c0-.104.058-.156.175-.156h1.983c.078 0 .117.052.117.157l.02 13.703c0 .079-.033.118-.098.118H24.32l-3.467-7.396.147 7.239c0 .105-.062.157-.186.157zM30.259 14.604h-2.247c-.065 0-.097-.033-.097-.098L27.954.704c0-.052.026-.078.078-.078h6.406c.065 0 .098.026.098.078V2.97c0 .052-.026.079-.078.079h-4.102v3.119h4.102c.052 0 .078.033.078.098l.02 2.276c0 .052-.033.078-.098.078h-4.102v5.886c0 .065-.032.098-.097.098zM42.876 14.604H36.41c-.052 0-.078-.033-.078-.098l.02-13.782c0-.066.032-.098.097-.098h2.227c.065 0 .097.032.097.098l-.02 11.408h4.122c.065 0 .098.033.098.098v2.276c0 .065-.033.098-.098.098zM47.964 14.8a3.675 3.675 0 0 1-1.953-.55 4.136 4.136 0 0 1-1.436-1.47 4.054 4.054 0 0 1-.527-2.031L44.087.704c0-.052.026-.078.078-.078h2.246c.052 0 .078.026.078.078V10.75c0 .451.143.837.43 1.157.286.314.635.471 1.045.471.43 0 .788-.157 1.074-.47.286-.321.43-.707.43-1.158V.704c0-.052.026-.078.078-.078h2.246c.052 0 .078.026.078.078l.039 10.045c0 .739-.176 1.419-.527 2.04a4.165 4.165 0 0 1-1.426 1.472c-.593.36-1.257.539-1.992.539zM55.112 14.604h-2.246c-.045 0-.065-.033-.059-.098l2.286-7.17L52.846.703c-.012-.052.007-.078.06-.078h2.245c.065 0 .104.026.117.078l1.338 4.777L57.964.704c.013-.052.055-.078.127-.078h2.216c.052 0 .072.026.059.078L58.13 7.316l2.256 7.19c.026.065.006.098-.059.098h-2.236c-.059 0-.101-.033-.127-.098l-1.358-5.19-1.377 5.19c-.006.065-.045.098-.117.098zM63.911 14.604h-2.266c-.052 0-.078-.033-.078-.098l.02-13.802c0-.052.032-.078.097-.078h2.227c.065 0 .098.026.098.078l-.02 5.464h2.998V.704c0-.052.026-.078.078-.078h2.227c.065 0 .097.026.097.078l.04 13.802c0 .065-.033.098-.098.098h-2.246c-.065 0-.098-.033-.098-.098V8.6H63.99v5.905c0 .065-.026.098-.078.098zM74.741 14.8a3.675 3.675 0 0 1-1.953-.55 4.136 4.136 0 0 1-1.436-1.47 4.053 4.053 0 0 1-.527-2.031l.04-10.045c0-.052.025-.078.077-.078h2.246c.052 0 .078.026.078.078V10.75c0 .451.144.837.43 1.157.287.314.635.471 1.045.471.43 0 .788-.157 1.074-.47.287-.321.43-.707.43-1.158V.704c0-.052.026-.078.078-.078h2.246c.052 0 .078.026.078.078l.04 10.045c0 .739-.176 1.419-.528 2.04a4.164 4.164 0 0 1-1.426 1.472c-.592.36-1.256.539-1.992.539zM83.92 14.604h-3.583c-.052 0-.078-.033-.078-.098L80.298.704c0-.052.026-.078.078-.078h3.847c.75 0 1.43.183 2.041.549.6.366 1.071.853 1.416 1.462.345.601.518 1.255.518 1.961 0 .576-.13 1.112-.39 1.61-.261.496-.57.898-.928 1.206a4.193 4.193 0 0 1 1.22 2.952c0 .778-.185 1.488-.556 2.129a4.387 4.387 0 0 1-1.514 1.54 4.018 4.018 0 0 1-2.11.569zm.303-11.595H82.7v3.159h1.523c.463 0 .837-.164 1.124-.49.286-.334.43-.694.43-1.08 0-.425-.154-.794-.46-1.108a1.46 1.46 0 0 0-1.093-.48zm-.302 5.592H82.7l-.02 3.55h1.24c.483 0 .896-.176 1.241-.53.345-.352.517-.77.517-1.255 0-.484-.172-.899-.517-1.246a1.688 1.688 0 0 0-1.24-.52z" fill="#3D3F4C"/></svg>