<svg width="32" height="32" viewBox="0 0 32 32" fill="none" xmlns="http://www.w3.org/2000/svg"><mask id="a" style="mask-type:alpha" maskUnits="userSpaceOnUse" x="0" y="0" width="32" height="32"><path fill="#C4C4C4" d="M0 0h32v32H0z"/></mask><g mask="url(#a)"><path d="M16 1.4l12.8 7.4v2.4L16 3.8 9.778 7.441v12.125L11.91 20.8V8.51L16 6.194l12.8 7.489v9.629L16 30.8l-2.133-1.248 12.8-7.49V14.93L16 8.867l-2.133 1.249L24.8 16.4v4.4l-12.889 7.6L3.2 23.31V8.735l2.133-1.238v14.567l6.578 3.806L22.4 19.6v-2.4l-10.489 6.2L7.6 20.965V6.2L16 1.4z" fill="url(#paint0_linear_19461_12904)"/></g><defs><linearGradient id="paint0_linear_19461_12904" x1="16" y1="1.2" x2="16" y2="30.8" gradientUnits="userSpaceOnUse"><stop stop-color="#66F3D4"/><stop offset="1" stop-color="#4D71FF"/></linearGradient></defs></svg>