<svg width="28" height="28" viewBox="0 0 28 28" fill="none" xmlns="http://www.w3.org/2000/svg"><path fill-rule="evenodd" clip-rule="evenodd" d="M12 1.155a4 4 0 0 1 4 0l8.125 4.69a4 4 0 0 1 2 3.465v9.38a4 4 0 0 1-2 3.465L16 26.845a4 4 0 0 1-4 0l-8.124-4.69a4 4 0 0 1-2-3.464V9.31a4 4 0 0 1 2-3.464L12 1.155z" fill="#fff"/><path fill-rule="evenodd" clip-rule="evenodd" d="M23.525 6.885L15.4 2.195a2.8 2.8 0 0 0-2.8 0l-8.124 4.69a2.8 2.8 0 0 0-1.4 2.425v9.38a2.8 2.8 0 0 0 1.4 2.426l8.124 4.69a2.8 2.8 0 0 0 2.8 0l8.125-4.69a2.8 2.8 0 0 0 1.4-2.425V9.31a2.8 2.8 0 0 0-1.4-2.425zM16 1.155a4 4 0 0 0-4 0l-8.124 4.69a4 4 0 0 0-2 3.465v9.38a4 4 0 0 0 2 3.465L12 26.845a4 4 0 0 0 4 0l8.125-4.69a4 4 0 0 0 2-3.464V9.31a4 4 0 0 0-2-3.464L16 1.155z" fill="#44D7B6"/><path fill-rule="evenodd" clip-rule="evenodd" d="M8.58 17.67l5.181 5.181 5.215-5.215-1.728-1.728-3.466 3.466-1.724-1.723 3.466-3.467-1.73-1.73L8.58 17.67z" fill="#231916"/><path fill-rule="evenodd" clip-rule="evenodd" d="M13.821 5.478L6.87 12.43l.024 3.443 6.897-6.897 6.925 6.925.012-3.518-6.906-6.905z" fill="#38A0DA"/></svg>