<svg viewBox="0 0 1024 1024" xmlns="http://www.w3.org/2000/svg" width="28" height="28"><defs><style>@font-face{font-family:feedback-iconfont;src:url("//at.alicdn.com/t/font_1031158_u69w8yhxdu.woff2?t=1630033759944") format("woff2"),url("//at.alicdn.com/t/font_1031158_u69w8yhxdu.woff?t=1630033759944") format("woff"),url("//at.alicdn.com/t/font_1031158_u69w8yhxdu.ttf?t=1630033759944") format("truetype")}</style></defs><path d="M512 981.333c259.2 0 469.333-210.133 469.333-469.333S771.2 42.667 512 42.667 42.667 252.8 42.667 512 252.8 981.333 512 981.333zm0 42.667C229.227 1024 0 794.773 0 512S229.227 0 512 0s512 229.227 512 512-229.227 512-512 512z" fill="#E15C56"/><path d="M706.88 724.267a21.333 21.333 0 1 1-31.616 28.629 212.992 212.992 0 0 0-158.528-70.23 213.44 213.44 0 0 0-126.89 41.6 21.333 21.333 0 0 1-25.323-34.325A256.085 256.085 0 0 1 516.715 640a255.637 255.637 0 0 1 190.165 84.267zM330.347 424.533l-60.331 60.331a21.333 21.333 0 0 1-30.165-30.165l60.33-60.352-60.33-60.331a21.333 21.333 0 0 1 30.165-30.165l60.33 60.33 60.353-60.33a21.333 21.333 0 1 1 30.165 30.165l-60.352 60.33 60.352 60.353a21.333 21.333 0 1 1-30.165 30.165l-60.352-60.352zm362.666 0l-60.33 60.331a21.333 21.333 0 0 1-30.166-30.165l60.331-60.352-60.33-60.331a21.333 21.333 0 1 1 30.165-30.165l60.33 60.33 60.352-60.33a21.333 21.333 0 1 1 30.166 30.165l-60.352 60.33L783.53 454.7a21.333 21.333 0 1 1-30.166 30.165l-60.352-60.352z" fill="#E15C56"/></svg>