<svg width="400" height="128" viewBox="0 0 400 128" fill="none" xmlns="http://www.w3.org/2000/svg">
<mask id="mask0_3612_20168" style="mask-type:alpha" maskUnits="userSpaceOnUse" x="0" y="0" width="400" height="128">
<path d="M0 4C0 1.79086 1.79086 0 4 0H396C398.209 0 400 1.79086 400 4V124C400 126.209 398.209 128 396 128H4C1.79086 128 0 126.209 0 124V4Z" fill="white"/>
</mask>
<g mask="url(#mask0_3612_20168)">
<g opacity="0.2">
<circle opacity="0.4" cx="355" cy="87" r="64.5" fill="white" stroke="#CCCCCC" stroke-width="3"/>
<path d="M387.75 49V59.2963C387.75 71.1482 378.23 80.7785 366.414 80.9699L366.055 80.9728L355.75 80.9733V91.2955C355.75 103.489 346.069 113 334.143 113H323.75V102.398C323.75 102.351 323.75 102.303 323.75 102.256V79.347C323.75 62.5868 337.349 49 354.123 49H387.75Z" fill="white"/>
<path fill-rule="evenodd" clip-rule="evenodd" d="M374.012 49H387.75V59.2955C387.75 71.4893 378.069 81 366.143 81H365.785H355.75V70.4064C355.75 59.6025 363.661 50.6447 374.012 49Z" fill="#242265" fill-opacity="0.8"/>
<path d="M387.75 49V59.2963C387.75 71.1482 378.23 80.7785 366.414 80.9699L366.055 80.9728L355.75 80.9733V91.2955C355.75 103.489 346.069 113 334.143 113H323.75V102.398C323.75 102.351 323.75 102.303 323.75 102.256V79.347C323.75 62.5868 337.349 49 354.123 49H387.75Z" fill="#616EE1" fill-opacity="0.8"/>
</g>
</g>
</svg>
