<svg width="103" height="60" viewBox="0 0 103 60" fill="none" xmlns="http://www.w3.org/2000/svg">
<path d="M4.49829 32.1815C19.4647 35.5091 29.4076 43.3696 40.8701 50.8635C61.9586 64.648 78.0863 55.3598 87.6278 45.3328C100.04 32.3082 99.998 32.1604 99.998 32.1604" stroke="#843EB4" stroke-width="4.22192" stroke-miterlimit="10" stroke-linecap="round"/>
<path d="M3.88647 30.7876C23.3917 13.3722 29.9357 14.7444 50.6231 29.6055C71.3105 44.4667 81.3586 46.2399 98.0352 30.7876" stroke="#DC3CB9" stroke-width="4.22192" stroke-miterlimit="10" stroke-linecap="round"/>
<path d="M3 31.5905C22.6741 38.3667 30.6535 38.81 49.5255 26.7353C68.3975 14.6606 76.9469 15.5684 98.9219 31.5272" stroke="#EEA940" stroke-width="4.22192" stroke-miterlimit="10" stroke-linecap="round"/>
<path d="M3 31.2946C21.0487 31.2946 29.3236 25.8483 42.6016 13.7736C55.9006 1.69894 72.1761 -2.71296 85.4751 13.7736C98.7742 30.2602 99.9985 32.1812 99.9985 32.1812" stroke="#2279EC" stroke-width="4.22192" stroke-miterlimit="10" stroke-linecap="round"/>
</svg>
