<svg width="20" height="20" viewBox="0 0 20 20" fill="none" xmlns="http://www.w3.org/2000/svg"><mask id="a" style="mask-type:alpha" maskUnits="userSpaceOnUse" x="0" y="0" width="20" height="20"><path fill="#C4C4C4" d="M0 0h20v20H0z"/></mask><g mask="url(#a)"><path d="M18 2v2.574c0 2.963-2.38 5.37-5.334 5.418l-.09.001H10v2.58A5.382 5.382 0 0 1 4.598 18H2v-2.65-5.763A7.59 7.59 0 0 1 9.593 2H18z" fill="#fff"/><path fill-rule="evenodd" clip-rule="evenodd" d="M14.565 2H18v2.574A5.382 5.382 0 0 1 12.598 10H10V7.352C10 4.65 11.978 2.412 14.565 2z" fill="#242265" fill-opacity=".8"/><path d="M18 2v2.574c0 2.963-2.38 5.37-5.334 5.418l-.09.001H10v2.58A5.382 5.382 0 0 1 4.598 18H2v-2.65-5.763A7.59 7.59 0 0 1 9.593 2H18z" fill="#616EE1" fill-opacity=".8"/></g></svg>