<svg width="20" height="20" viewBox="0 0 20 20" fill="none" xmlns="http://www.w3.org/2000/svg"><mask id="a" style="mask-type:alpha" maskUnits="userSpaceOnUse" x="-1" y="-1" width="22" height="22"><circle cx="10" cy="10" r="10" fill="#fff" stroke="#EAEDFC"/></mask><g mask="url(#a)" stroke-width=".25" stroke-linecap="round" stroke-linejoin="round"><path d="M17.182 2.5l-6.335 4.688 1.178-2.763L17.182 2.5z" fill="#E17726" stroke="#E17726"/><path d="M2.57 2.5l6.278 4.731-1.122-2.806L2.57 2.5zM14.901 13.369l-1.685 2.575 3.609.993 1.034-3.512-2.958-.056zM1.899 13.425l1.027 3.512 3.603-.993-1.679-2.575-2.951.056z" fill="#E27625" stroke="#E27625"/><path d="M6.335 9.019L5.332 10.53l3.572.163-.119-3.844-2.45 2.169zM13.416 9.019l-2.488-2.213-.081 3.888 3.572-.163-1.003-1.512zM6.53 15.944L8.69 14.9l-1.86-1.45-.301 2.494zM11.06 14.9l2.156 1.044-.295-2.494-1.86 1.45z" fill="#E27625" stroke="#E27625"/><path d="M13.215 15.944L11.06 14.9l.175 1.4-.019.594 2-.95zM6.53 15.944l2.004.95-.012-.594.169-1.4-2.162 1.044z" fill="#D5BFB2" stroke="#D5BFB2"/><path d="M8.571 12.525L6.78 12l1.266-.581.526 1.106zM11.179 12.525l.526-1.106 1.272.581-1.798.525z" fill="#233447" stroke="#233447"/><path d="M6.53 15.944l.313-2.575-1.993.056 1.68 2.519zM12.908 13.369l.307 2.575 1.686-2.52-1.993-.055zM14.419 10.531l-3.572.163.332 1.831.526-1.106 1.272.581 1.442-1.469zM6.78 12l1.265-.581.527 1.106.332-1.831-3.572-.163L6.78 12z" fill="#CC6228" stroke="#CC6228"/><path d="M5.332 10.531L6.83 13.45 6.78 12l-1.448-1.469zM12.977 12l-.056 1.45 1.497-2.919L12.978 12zM8.904 10.694l-.332 1.831.42 2.163.093-2.85-.181-1.144zM10.847 10.694l-.175 1.137.087 2.857.42-2.163-.332-1.831z" fill="#E27525" stroke="#E27525"/><path d="M11.179 12.525l-.42 2.162.3.213 1.862-1.45.056-1.45-1.798.525zM6.78 12l.05 1.45 1.86 1.45.301-.213-.42-2.162L6.78 12z" fill="#F5841F" stroke="#F5841F"/><path d="M11.216 16.894l.02-.594-.164-.137H8.678l-.156.137.012.594-2.005-.95.702.575 1.422.981h2.438l1.429-.981.695-.575-1.999.95z" fill="#C0AC9D" stroke="#C0AC9D"/><path d="M11.06 14.9l-.301-.213H8.992l-.301.213-.17 1.4.158-.137h2.393l.163.137-.175-1.4z" fill="#161616" stroke="#161616"/><path d="M17.451 7.494l.533-2.588-.802-2.406-6.122 4.531 2.356 1.988 3.327.969.733-.857-.32-.231.508-.462-.388-.3.507-.388-.332-.256zM1.767 4.906l.539 2.588-.345.256.514.388-.388.3.507.462-.32.231.734.857 3.327-.97 2.356-1.987L2.569 2.5l-.802 2.406z" fill="#763E1A" stroke="#763E1A"/><path d="M16.743 9.988l-3.327-.969 1.002 1.513-1.497 2.918 1.98-.025h2.957l-1.115-3.437zM6.335 9.019l-3.327.969-1.11 3.437H4.85l1.98.025-1.497-2.918 1.002-1.513zM10.846 10.694l.213-3.663.965-2.606H7.726L8.69 7.03l.213 3.663.081 1.15.006 2.843h1.767l.007-2.843.081-1.15z" fill="#F5841F" stroke="#F5841F"/></g></svg>