<svg width="38" height="38" viewBox="0 0 38 38" fill="none" xmlns="http://www.w3.org/2000/svg"><rect width="38" height="38" rx="19" fill="#E9FBF7"/><ellipse cx="19" cy="19" rx="11" ry="11" fill="url(#paint0_linear_31_6060)" filter="url(#filter0_d_31_6060)"/><path fill-rule="evenodd" clip-rule="evenodd" d="M19 13.5a3 3 0 0 0-3 3v1a2 2 0 0 0-2 2v3a2 2 0 0 0 2 2h6a2 2 0 0 0 2-2v-3a2 2 0 0 0-2-2v-1a3 3 0 0 0-3-3zm1 4v-1a1 1 0 1 0-2 0v1h2zm1.33 1.625a.5.5 0 0 1 .045.705l-2.2 2.5a.5.5 0 0 1-.68.066l-1.3-1a.5.5 0 0 1 .61-.792l.929.714 1.89-2.148a.5.5 0 0 1 .706-.045z" fill="url(#paint1_linear_31_6060)"/><defs><filter id="filter0_d_31_6060" x="4" y="6" width="30" height="30" filterUnits="userSpaceOnUse" color-interpolation-filters="sRGB"><feFlood flood-opacity="0" result="BackgroundImageFix"/><feColorMatrix in="SourceAlpha" values="0 0 0 0 0 0 0 0 0 0 0 0 0 0 0 0 0 0 127 0" result="hardAlpha"/><feOffset dy="2"/><feGaussianBlur stdDeviation="2"/><feComposite in2="hardAlpha" operator="out"/><feColorMatrix values="0 0 0 0 0.139861 0 0 0 0 0.883333 0 0 0 0 0.726434 0 0 0 0.25 0"/><feBlend in2="BackgroundImageFix" result="effect1_dropShadow_31_6060"/><feBlend in="SourceGraphic" in2="effect1_dropShadow_31_6060" result="shape"/></filter><linearGradient id="paint0_linear_31_6060" x1="10.5" y1="8.5" x2="25" y2="30.5" gradientUnits="userSpaceOnUse"><stop stop-color="#8AEFCA"/><stop offset="1" stop-color="#1FD6AA"/></linearGradient><linearGradient id="paint1_linear_31_6060" x1="18" y1="13" x2="18" y2="24.5" gradientUnits="userSpaceOnUse"><stop stop-color="#E9FBF7"/><stop offset="1" stop-color="#C7FFE8"/></linearGradient></defs></svg>