<svg width="38" height="38" viewBox="0 0 38 38" fill="none" xmlns="http://www.w3.org/2000/svg"><rect width="38" height="38" rx="19" fill="#FFF3F0"/><path d="M10 12.311a2 2 0 0 1 1.373-1.9l7-2.31a2 2 0 0 1 1.254 0l7 2.31a2 2 0 0 1 1.373 1.9v9.783a4 4 0 0 1-1.895 3.401l-6.052 3.747a2 2 0 0 1-2.106 0l-6.052-3.747a4 4 0 0 1-1.895-3.4V12.31z" fill="url(#paint0_linear_31_6092)" filter="url(#filter0_d_31_6092)"/><path fill-rule="evenodd" clip-rule="evenodd" d="M20.973 18.26a3 3 0 1 0-3.945 0L16.374 20H15a1 1 0 1 0 0 2h8a1 1 0 1 0 0-2h-1.375l-.652-1.74zM17 23a1 1 0 1 0 0 2h4a1 1 0 1 0 0-2h-4z" fill="url(#paint1_linear_31_6092)"/><circle cx="25" cy="26.5" r="3" fill="url(#paint2_linear_31_6092)" filter="url(#filter1_d_31_6092)"/><rect x="23" y="26" width="4" height="1" rx=".5" fill="url(#paint3_linear_31_6092)"/><defs><filter id="filter0_d_31_6092" x="6" y="6" width="26" height="29.542" filterUnits="userSpaceOnUse" color-interpolation-filters="sRGB"><feFlood flood-opacity="0" result="BackgroundImageFix"/><feColorMatrix in="SourceAlpha" values="0 0 0 0 0 0 0 0 0 0 0 0 0 0 0 0 0 0 127 0" result="hardAlpha"/><feOffset dy="2"/><feGaussianBlur stdDeviation="2"/><feComposite in2="hardAlpha" operator="out"/><feColorMatrix values="0 0 0 0 0.916667 0 0 0 0 0.199133 0 0 0 0 0.103125 0 0 0 0.2 0"/><feBlend in2="BackgroundImageFix" result="effect1_dropShadow_31_6092"/><feBlend in="SourceGraphic" in2="effect1_dropShadow_31_6092" result="shape"/></filter><filter id="filter1_d_31_6092" x="20" y="22.5" width="10" height="10" filterUnits="userSpaceOnUse" color-interpolation-filters="sRGB"><feFlood flood-opacity="0" result="BackgroundImageFix"/><feColorMatrix in="SourceAlpha" values="0 0 0 0 0 0 0 0 0 0 0 0 0 0 0 0 0 0 127 0" result="hardAlpha"/><feOffset dy="1"/><feGaussianBlur stdDeviation="1"/><feComposite in2="hardAlpha" operator="out"/><feColorMatrix values="0 0 0 0 0.991667 0 0 0 0 0.630535 0 0 0 0 0.231389 0 0 0 0.2 0"/><feBlend in2="BackgroundImageFix" result="effect1_dropShadow_31_6092"/><feBlend in="SourceGraphic" in2="effect1_dropShadow_31_6092" result="shape"/></filter><linearGradient id="paint0_linear_31_6092" x1="14" y1="9" x2="19.5" y2="29.5" gradientUnits="userSpaceOnUse"><stop stop-color="#FFA496"/><stop offset=".812" stop-color="#F66855"/></linearGradient><linearGradient id="paint1_linear_31_6092" x1="19" y1="13" x2="19" y2="25" gradientUnits="userSpaceOnUse"><stop stop-color="#FFF3F0"/><stop offset="1" stop-color="#FCCEBD"/></linearGradient><linearGradient id="paint2_linear_31_6092" x1="23" y1="24" x2="27" y2="29" gradientUnits="userSpaceOnUse"><stop stop-color="#FFBFB0"/><stop offset=".943" stop-color="#FF8574"/></linearGradient><linearGradient id="paint3_linear_31_6092" x1="25" y1="26" x2="25" y2="27" gradientUnits="userSpaceOnUse"><stop stop-color="#FFF3F0"/><stop offset="1" stop-color="#FCCEBD"/></linearGradient></defs></svg>