<svg width="38" height="38" viewBox="0 0 38 38" fill="none" xmlns="http://www.w3.org/2000/svg"><rect width="38" height="38" rx="19" fill="#F0F7FF"/><circle cx="19" cy="19" r="11" fill="url(#paint0_linear_149_4668)" filter="url(#filter0_d_149_4668)"/><path fill-rule="evenodd" clip-rule="evenodd" d="M18 15a1 1 0 1 1 2 0v8a1 1 0 1 1-2 0v-8zm-4 4a1 1 0 1 1 2 0v4a1 1 0 1 1-2 0v-4zm9-3a1 1 0 0 0-1 1v6a1 1 0 1 0 2 0v-6a1 1 0 0 0-1-1z" fill="url(#paint1_linear_149_4668)"/><defs><filter id="filter0_d_149_4668" x="4" y="6" width="30" height="30" filterUnits="userSpaceOnUse" color-interpolation-filters="sRGB"><feFlood flood-opacity="0" result="BackgroundImageFix"/><feColorMatrix in="SourceAlpha" values="0 0 0 0 0 0 0 0 0 0 0 0 0 0 0 0 0 0 127 0" result="hardAlpha"/><feOffset dy="2"/><feGaussianBlur stdDeviation="2"/><feComposite in2="hardAlpha" operator="out"/><feColorMatrix values="0 0 0 0 0.185833 0 0 0 0 0.529272 0 0 0 0 0.929167 0 0 0 0.26 0"/><feBlend in2="BackgroundImageFix" result="effect1_dropShadow_149_4668"/><feBlend in="SourceGraphic" in2="effect1_dropShadow_149_4668" result="shape"/></filter><linearGradient id="paint0_linear_149_4668" x1="12" y1="9.5" x2="23.5" y2="29" gradientUnits="userSpaceOnUse"><stop stop-color="#A4CEFF"/><stop offset=".823" stop-color="#559EF3"/></linearGradient><linearGradient id="paint1_linear_149_4668" x1="19" y1="14.625" x2="19" y2="24" gradientUnits="userSpaceOnUse"><stop stop-color="#EDF5FF"/><stop offset="1" stop-color="#BCDAFF"/></linearGradient></defs></svg>