<svg width="38" height="38" viewBox="0 0 38 38" fill="none" xmlns="http://www.w3.org/2000/svg"><rect width="38" height="38" rx="19" fill="#ECE4FF"/><rect width="38" height="38" rx="19" fill="#F4EFFF"/><g filter="url(#filter0_d_149_4662)"><path d="M9 17.425a2 2 0 0 1 .705-1.524l8-6.8a2 2 0 0 1 2.59 0l8 6.8A2 2 0 0 1 29 17.425V26a2 2 0 0 1-2 2H11a2 2 0 0 1-2-2v-8.575z" fill="#8D5FF9"/><path d="M9 17.425a2 2 0 0 1 .705-1.524l8-6.8a2 2 0 0 1 2.59 0l8 6.8A2 2 0 0 1 29 17.425V26a2 2 0 0 1-2 2H11a2 2 0 0 1-2-2v-8.575z" fill="url(#paint0_linear_149_4662)"/></g><path fill-rule="evenodd" clip-rule="evenodd" d="M19 13.5a3 3 0 0 0-3 3v1a2 2 0 0 0-2 2v3a2 2 0 0 0 2 2h6a2 2 0 0 0 2-2v-3a2 2 0 0 0-2-2v-1a3 3 0 0 0-3-3zm1 4v-1a1 1 0 1 0-2 0v1h2zm-2 3a1 1 0 1 1 2 0v1a1 1 0 1 1-2 0v-1z" fill="url(#paint1_linear_149_4662)"/><defs><filter id="filter0_d_149_4662" x="5" y="6.625" width="28" height="27.375" filterUnits="userSpaceOnUse" color-interpolation-filters="sRGB"><feFlood flood-opacity="0" result="BackgroundImageFix"/><feColorMatrix in="SourceAlpha" values="0 0 0 0 0 0 0 0 0 0 0 0 0 0 0 0 0 0 127 0" result="hardAlpha"/><feOffset dy="2"/><feGaussianBlur stdDeviation="2"/><feComposite in2="hardAlpha" operator="out"/><feColorMatrix values="0 0 0 0 0.381766 0 0 0 0 0.123333 0 0 0 0 0.925 0 0 0 0.2 0"/><feBlend in2="BackgroundImageFix" result="effect1_dropShadow_149_4662"/><feBlend in="SourceGraphic" in2="effect1_dropShadow_149_4662" result="shape"/></filter><linearGradient id="paint0_linear_149_4662" x1="19" y1="8" x2="19" y2="28" gradientUnits="userSpaceOnUse"><stop stop-color="#DE80FF"/><stop offset="1" stop-color="#8D5FF9"/></linearGradient><linearGradient id="paint1_linear_149_4662" x1="18" y1="13" x2="18" y2="24.5" gradientUnits="userSpaceOnUse"><stop stop-color="#F4EFFF"/><stop offset="1" stop-color="#E5D9FF"/></linearGradient></defs></svg>