<svg xmlns="http://www.w3.org/2000/svg" width="31.429ex" height="2.896ex" viewBox="0 -1085.9 13891.6 1279.9" xmlns:xlink="http://www.w3.org/1999/xlink" aria-hidden="true"><defs><path id="a" d="M36-148h14q39 0 47 14v57q0 18 1 39t0 44 0 49 0 51v190q0 24-1 39t0 16q-3 19-14 25t-45 9H20v23q0 23 2 23l10 1q10 1 29 2t37 2 37 2 30 3 11 1h3v-26l1-26 8 7q59 44 138 44 81 0 138-64t58-161q0-101-65-164T310-11q-68 0-120 44l-8 7v-141q0-27 2-33t11-11q21-3 49-3h16v-46h-8l-24 1q-23 1-50 1t-38 1q-103 0-112-3h-8v46h16zm388 366q0 74-34 129t-85 55q-71 0-123-65V98q40-72 112-72 51 0 90 54t40 138z"/><path id="b" d="M36 46h14q39 0 47 14v31q0 14 1 31t0 39 0 42v125l-1 23q-3 19-14 25t-45 9H20v23q0 23 2 23l10 1q10 1 28 2t36 2q16 1 35 2t29 3 11 1h3v-69q39 68 97 68h6q45 0 66-22t21-46q0-21-13-36t-38-15q-25 0-37 16t-13 34q0 9 2 16t5 12 3 5q-2 2-23-4-16-8-24-15-47-45-47-179v-53-27-26q0-12 1-20t0-15v-5q1-2 3-4t5-3 5-3 7-2 7-1 9-1 9 0 10-1 10 0h31V0h-9q-18 3-127 3Q37 3 28 0h-8v46h16z"/><path id="c" d="M28 218q0 55 20 100t50 73 65 42 66 15q53 0 91-18t58-50 28-64 9-71q0-7-7-14H126v-15q0-148 100-180 20-6 44-6 42 0 72 32 17 17 27 42l10 24q3 3 16 3h3q17 0 17-10 0-4-3-13-19-55-63-87t-99-32q-95 0-158 69T28 218zm305 57q-11 128-95 136h-2q-8 0-16-1t-25-8-29-21-23-41-16-66v-7h206v8z"/><path id="d" d="M338 431q6-2 84-2 57 0 81 2h5v-46h-11q-58-4-74-40-2-4-67-173T288-2q-5-9-25-9-19 0-24 9Q99 359 98 364q-5 14-16 17t-39 4H19v46h6l8-1h46q14 0 25-1t18-1q95 0 110 3h8v-46h-14q-39-1-42-15 0-4 51-136l51-132 91 239v8q0 14-10 23t-18 11-14 2h-4v46h7z"/><path id="e" d="M69 609q0 28 18 44t44 16q23-2 40-17t17-43q0-30-17-45t-42-15q-25 0-42 15t-18 45zM247 0q-15 3-104 3h-37Q80 3 56 1L34 0h-8v46h16q28 0 49 3 9 4 11 11t2 42v191q0 52-2 66t-14 19q-14 7-47 7H30v23q0 23 2 23l10 1q10 1 28 2t36 2 36 2 29 3 11 1h3V62q5-10 12-12t35-4h23V0h-8z"/><path id="f" d="M28 214q0 95 65 164t157 70q90 0 155-68t66-165q0-95-64-160T250-10q-97 0-159 67T28 214zM250 30q122 0 122 163v57q0 22-1 38t-7 38-16 36-31 28-49 20q-5 1-16 1-30 0-57-12-43-22-56-61t-13-92v-20q0-96 19-135 32-61 105-61z"/><path id="g" d="M383 58q-56-68-127-68h-7q-125 0-144 99-1 7-2 137-1 109-1 122t-6 21q-10 16-60 16H25v23q0 23 2 23l11 1q10 1 29 2t38 2q17 1 37 2t30 3 12 1h3V261q1-184 3-197 3-15 14-24 20-14 60-14 26 0 47 9t32 23 20 32 12 30 4 24v17q0 16 1 40t0 47v67q0 46-10 57t-50 13h-18v46q2 0 76 5t79 6h7V264q0-180 1-183 3-20 14-26t45-9h18V0q-2 0-75-5t-77-6h-7v69z"/><path id="h" d="M295 316q0 40-27 69t-78 29q-36 0-62-13-30-19-30-52-1-5 0-13t16-24 43-25q18-5 44-9t44-9 32-13q17-8 33-20t32-41 17-62q0-62-38-102T198-10h-8q-52 0-96 36l-8-7-9-9Q71 4 65-1L54-11H42q-3 0-9 6v137q0 21 2 25t10 5h9q12 0 16-4t5-12 7-27 19-42q35-51 97-51 97 0 97 78 0 29-18 47-20 24-83 36t-83 23q-36 17-57 46t-21 62q0 39 17 66t43 40 50 18 44 5h11q40 0 70-15l15-8 9 7q10 9 22 17h12q3 0 9-6V310l-6-6h-28q-6 6-6 12z"/><path id="i" d="M130 622q-7 7-11 9t-16 3-43 3H27v46h273q76 0 117-6t83-29q95-48 109-131 1-5 1-16 0-33-16-62t-38-47-45-31-39-18l-16-5q3-3 11-6 30-16 49-34t29-44 14-43 9-56 10-61q10-48 24-63t38-15h5q15 0 29 16t18 55q0 11 4 14t16 4 16-2 4-13q0-31-16-63t-44-43q-16-6-42-6-149 6-172 112-2 11-2 73t-7 83q-19 58-76 74l-10 2-66 1h-66V192l1-131q6-10 17-12t52-3h33V0h-11q-21 3-142 3Q59 3 38 0H27v46h33q42 1 51 3t19 12v561zm361-123v10q0 18-1 30t-9 31-19 31-38 22-62 13h-22q-20 0-36 1h-21q-45 0-49-9-3-4-3-136V360h58q101 0 145 18t55 78q2 11 2 43z"/><path id="j" d="M137 305h-22l-37 15-15 39q0 35 34 62t121 27q73 0 118-32t60-76q5-14 5-31t1-115v-70q0-48 5-66t21-18q15 0 20 16t5 53v36h40v-39q-1-40-3-47-9-30-35-47T400-6t-47 18-24 42v4l-2-3q-2-3-5-6t-8-9-12-11-15-12-18-11-22-8-26-6-31-3q-60 0-108 31t-48 87q0 21 7 40t27 41 48 37 78 28 110 15h14v22q0 34-6 50-22 71-97 71-18 0-34-1t-25-4-8-3q22-15 22-44 0-25-16-39zm-11-199q0-31 24-55t59-25q38 0 67 23t39 60q2 7 3 66 0 58-1 58-8 0-21-1t-45-9-58-20-46-37-21-60z"/><path id="k" d="M27 422q53 4 82 56t32 122v15h40V431h135v-46H181V241q1-125 1-141t7-32q14-39 49-39 44 0 54 71 1 8 1 46v35h40v-47q0-77-42-117-27-27-70-27-34 0-59 12t-38 31-19 35-7 32q-1 7-1 148v137H18v37h9z"/><path id="l" d="M229 286q-13 134-13 150 0 18 24 28h5q4 0 6 1 12-1 22-9t10-20q0-17-6-80t-7-70l58 42q56 41 61 44t10 3q13 0 24-10t12-27q0-13-10-23-5-3-68-33t-68-32l66-31 70-35q9-9 9-23 0-15-9-25t-24-11q-8 0-18 6t-55 40l-58 42q13-134 13-150 0-10-7-19t-26-9q-19 0-26 9t-8 19q0 17 6 80t7 70l-58-42q-56-41-61-44-4-3-10-3-13 0-24 10t-12 27v8q0 3 3 6t5 6 9 7 13 7 19 9 25 11 32 15 40 20L74 315q-9 9-9 23 0 15 9 25t24 11q8 0 18-6t55-40l58-42z"/><path id="m" d="M109 429q-27 0-43 18t-16 44q0 71 53 123t132 52q91 0 152-56t62-145q0-43-20-82t-48-68-80-74q-36-31-100-92l-59-56 76-1q157 0 167 5 7 2 24 89v3h40v-3q-1-3-13-91T421 3V0H50v31q0 7 6 15t30 35q29 32 50 56 9 10 34 37t34 37 29 33 28 34 23 30 21 32 15 29 13 32 7 30 3 33q0 63-34 109t-97 46q-33 0-58-17t-35-33-10-19q0-1 5-1 18 0 37-14t19-46q0-25-16-42t-45-18z"/><path id="n" d="M41 46h14q39 0 47 14v62q0 17 1 39t0 42v66q0 35-1 59v23q-3 19-14 25t-45 9H25v23q0 23 2 23l10 1q10 1 28 2t37 2q17 1 36 2t29 3 11 1h3v-40q0-38 1-38t5 5 12 15 19 18 29 19 38 16q20 5 51 5 114-4 127-113 1-7 1-139v-86q0-38 2-45t11-10q21-3 49-3h16V0h-8l-24 1q-23 1-50 1t-38 1Q319 3 310 0h-8v46h16q61 0 61 16 1 2 1 138-1 135-2 143-6 28-20 42t-24 17-26 2q-45 0-79-34-27-27-34-55t-8-83V108q0-30 1-40t3-13 9-6q21-3 49-3h16V0h-8l-23 1q-24 1-51 1t-38 1Q42 3 33 0h-8v46h16z"/><path id="o" d="M370 305h-21l-36 15-16 38q0 23 15 38 5 5 5 6t-10 2q-26 4-49 4-49 0-80-32-47-47-47-157 0-82 31-129 41-61 110-61 41 0 66 26t36 62q2 8 5 10t16 2h14q6-6 6-9 0-4-4-16t-16-33-29-38-48-31-69-13q-86 0-150 64T34 214q0 104 65 169t151 65 120-27 34-64q0-23-17-37z"/><path id="p" d="M84 237v13l14 20h581q15-8 15-20t-15-20H98q-14 7-14 20z"/><path id="q" d="M376 495v40q0 24 1 33 0 45-10 56t-51 13h-18v23q0 23 2 23l10 1q10 1 29 2t37 2 37 2 30 3 11 1h3V390q0-306 1-309 3-20 14-26t45-9h18V0q-2 0-76-5t-79-6h-7v55l-8-7q-58-48-130-48-77 0-139 61T34 215q0 100 63 163t147 64q75 0 132-49v102zm-3-153q-45 63-113 63-49 0-87-36-27-28-34-64t-8-94q0-56 7-91t35-61q30-33 78-33 71 0 122 77v239z"/><path id="r" d="M56 237v13l14 20h299v150l1 150q10 13 19 13 13 0 20-15V270h298q15-8 15-20t-15-20H409V-68q-8-14-18-14h-4q-12 0-18 14v298H70q-14 7-14 20z"/><path id="s" d="M41 46h14q39 0 47 14v107q0 24 1 50t0 55 0 57v153q0 34-1 60t0 44 0 17q-3 19-14 25t-45 9H25v23q0 23 2 23l10 1q10 1 29 2t37 2 37 2 30 3 11 1h3V367q60 75 144 75 123 0 135-113 1-7 1-139v-86q0-38 2-45t11-10q21-3 49-3h16V0h-8l-24 1q-23 1-50 1t-38 1Q319 3 310 0h-8v46h16q61 0 61 16 1 2 1 138-1 135-2 143-6 28-20 42t-24 17-26 2q-45 0-79-34-27-27-34-55t-8-83V108q0-30 1-40t3-13 9-6q21-3 49-3h16V0h-8l-23 1q-24 1-51 1t-38 1Q42 3 33 0h-8v46h16z"/><path id="t" d="M329 409q44 44 100 44 30 0 43-19t13-38q0-14-9-25t-27-11q-33 0-37 30-2 14 3 21 0 1 1 3v1q-28-3-53-22-8-5-8-7 0-1 4-5t9-12 11-18 9-26 4-33q0-62-49-105t-121-44q-50 0-99 28-11-18-11-38 0-35 26-52 9-6 17-6t72-2q84-1 108-6 61-9 96-41 39-39 39-98 0-67-78-103-60-31-142-31-83 0-143 31-78 35-78 100 0 36 21 60t42 33l11 6q-36 31-36 84 0 47 29 85-44 44-44 99 0 63 50 106t121 44q51 0 95-26l11-7zm-30-66q-5 28-26 44t-52 17q-29 0-50-16t-26-45q-3-17-3-51 0-44 7-65t30-35q17-10 43-10 22 0 38 7t23 18 11 20 5 15q3 16 3 50t-3 51zM403-75q0 25-14 41t-41 23-49 9-54 2h-27q-67 0-80-6-20-9-31-28T95-74q0-10 6-23t21-30 48-28 80-12q69 0 111 28t42 64z"/></defs><g data-mml-node="math" stroke="currentColor" fill="currentColor" stroke-width="0"><g data-mml-node="TeXAtom"><g data-mml-node="mstyle" data-mjx-texclass="ORD"><g data-mml-node="TeXAtom" data-mjx-texclass="ORD" fill="#3d3f4c" stroke="#3d3f4c"><use xlink:href="#a" data-mml-node="mi" transform="scale(1 -1)"/><use xlink:href="#b" data-mml-node="mi" transform="matrix(1 0 0 -1 556 0)"/><use xlink:href="#c" data-mml-node="mi" transform="matrix(1 0 0 -1 948 0)"/><use xlink:href="#d" data-mml-node="mi" transform="matrix(1 0 0 -1 1392 0)"/><use xlink:href="#e" data-mml-node="mi" transform="matrix(1 0 0 -1 1920 0)"/><use xlink:href="#f" data-mml-node="mi" transform="matrix(1 0 0 -1 2198 0)"/><use xlink:href="#g" data-mml-node="mi" transform="matrix(1 0 0 -1 2698 0)"/><use xlink:href="#h" data-mml-node="mi" transform="matrix(1 0 0 -1 3254 0)"/><use xlink:href="#i" data-mml-node="mi" transform="matrix(1 0 0 -1 3648 0)"/><use xlink:href="#j" data-mml-node="mi" transform="matrix(1 0 0 -1 4384 0)"/><use xlink:href="#k" data-mml-node="mi" transform="matrix(1 0 0 -1 4884 0)"/><use xlink:href="#c" data-mml-node="mi" transform="matrix(1 0 0 -1 5273 0)"/><use xlink:href="#l" data-mml-node="mo" transform="matrix(1 0 0 -1 5939.2 0)"/><g data-mml-node="msup"><use xlink:href="#m" data-mml-node="mn" transform="matrix(1 0 0 -1 6661.4 0)"/><g data-mml-node="mfrac"><g data-mml-node="mrow"><use xlink:href="#e" data-mml-node="mi" transform="matrix(.49985 0 0 -.49985 8539.272 -738.886)"/><use xlink:href="#n" data-mml-node="mi" transform="matrix(.49985 0 0 -.49985 8678.23 -738.886)"/><use xlink:href="#o" data-mml-node="mi" transform="matrix(.49985 0 0 -.49985 8956.146 -738.886)"/><use xlink:href="#b" data-mml-node="mi" transform="matrix(.49985 0 0 -.49985 9178.08 -738.886)"/><use xlink:href="#c" data-mml-node="mi" transform="matrix(.49985 0 0 -.49985 9374.02 -738.886)"/><use xlink:href="#j" data-mml-node="mi" transform="matrix(.49985 0 0 -.49985 9595.953 -738.886)"/><use xlink:href="#h" data-mml-node="mi" transform="matrix(.49985 0 0 -.49985 9845.878 -738.886)"/><use xlink:href="#c" data-mml-node="mi" transform="matrix(.49985 0 0 -.49985 10042.818 -738.886)"/><use xlink:href="#p" data-mml-node="mo" transform="matrix(.49985 0 0 -.49985 10264.751 -738.886)"/><use xlink:href="#q" data-mml-node="mi" transform="matrix(.49985 0 0 -.49985 10653.634 -738.886)"/><use xlink:href="#c" data-mml-node="mi" transform="matrix(.49985 0 0 -.49985 10931.55 -738.886)"/><use xlink:href="#o" data-mml-node="mi" transform="matrix(.49985 0 0 -.49985 11153.483 -738.886)"/><use xlink:href="#b" data-mml-node="mi" transform="matrix(.49985 0 0 -.49985 11375.416 -738.886)"/><use xlink:href="#c" data-mml-node="mi" transform="matrix(.49985 0 0 -.49985 11571.356 -738.886)"/><use xlink:href="#j" data-mml-node="mi" transform="matrix(.49985 0 0 -.49985 11793.29 -738.886)"/><use xlink:href="#h" data-mml-node="mi" transform="matrix(.49985 0 0 -.49985 12043.214 -738.886)"/><use xlink:href="#c" data-mml-node="mi" transform="matrix(.49985 0 0 -.49985 12240.154 -738.886)"/></g><g data-mml-node="mrow"><use xlink:href="#e" data-mml-node="mi" transform="matrix(.49985 0 0 -.49985 7316.94 -213.585)"/><use xlink:href="#n" data-mml-node="mi" transform="matrix(.49985 0 0 -.49985 7455.898 -213.585)"/><use xlink:href="#o" data-mml-node="mi" transform="matrix(.49985 0 0 -.49985 7733.814 -213.585)"/><use xlink:href="#b" data-mml-node="mi" transform="matrix(.49985 0 0 -.49985 7955.747 -213.585)"/><use xlink:href="#c" data-mml-node="mi" transform="matrix(.49985 0 0 -.49985 8151.688 -213.585)"/><use xlink:href="#j" data-mml-node="mi" transform="matrix(.49985 0 0 -.49985 8373.62 -213.585)"/><use xlink:href="#h" data-mml-node="mi" transform="matrix(.49985 0 0 -.49985 8623.545 -213.585)"/><use xlink:href="#c" data-mml-node="mi" transform="matrix(.49985 0 0 -.49985 8820.486 -213.585)"/><use xlink:href="#r" data-mml-node="mo" transform="matrix(.49985 0 0 -.49985 9042.419 -213.585)"/><use xlink:href="#q" data-mml-node="mi" transform="matrix(.49985 0 0 -.49985 9431.301 -213.585)"/><use xlink:href="#c" data-mml-node="mi" transform="matrix(.49985 0 0 -.49985 9709.217 -213.585)"/><use xlink:href="#o" data-mml-node="mi" transform="matrix(.49985 0 0 -.49985 9931.15 -213.585)"/><use xlink:href="#b" data-mml-node="mi" transform="matrix(.49985 0 0 -.49985 10153.083 -213.585)"/><use xlink:href="#c" data-mml-node="mi" transform="matrix(.49985 0 0 -.49985 10349.024 -213.585)"/><use xlink:href="#j" data-mml-node="mi" transform="matrix(.49985 0 0 -.49985 10570.957 -213.585)"/><use xlink:href="#h" data-mml-node="mi" transform="matrix(.49985 0 0 -.49985 10820.881 -213.585)"/><use xlink:href="#c" data-mml-node="mi" transform="matrix(.49985 0 0 -.49985 11017.822 -213.585)"/><use xlink:href="#r" data-mml-node="mo" transform="matrix(.49985 0 0 -.49985 11239.755 -213.585)"/><use xlink:href="#g" data-mml-node="mi" transform="matrix(.49985 0 0 -.49985 11628.637 -213.585)"/><use xlink:href="#n" data-mml-node="mi" transform="matrix(.49985 0 0 -.49985 11906.554 -213.585)"/><use xlink:href="#o" data-mml-node="mi" transform="matrix(.49985 0 0 -.49985 12184.47 -213.585)"/><use xlink:href="#s" data-mml-node="mi" transform="matrix(.49985 0 0 -.49985 12406.403 -213.585)"/><use xlink:href="#j" data-mml-node="mi" transform="matrix(.49985 0 0 -.49985 12684.319 -213.585)"/><use xlink:href="#n" data-mml-node="mi" transform="matrix(.49985 0 0 -.49985 12934.243 -213.585)"/><use xlink:href="#t" data-mml-node="mi" transform="matrix(.49985 0 0 -.49985 13212.16 -213.585)"/><use xlink:href="#c" data-mml-node="mi" transform="matrix(.49985 0 0 -.49985 13462.084 -213.585)"/></g><path stroke="none" d="M7246.24-613.04h6509.42v-42.42H7246.24z"/></g></g></g></g></g></g></svg>