<svg width="38" height="38" viewBox="0 0 38 38" fill="none" xmlns="http://www.w3.org/2000/svg"><rect width="38" height="38" rx="19" fill="#E9F6FF"/><path d="M10 12.417a2 2 0 0 1 1.373-1.899l7-2.311a2 2 0 0 1 1.254 0l7 2.311a2 2 0 0 1 1.373 1.9V22.2a4 4 0 0 1-1.895 3.401l-6.052 3.747a2 2 0 0 1-2.106 0l-6.052-3.747a4 4 0 0 1-1.895-3.4v-9.784z" fill="url(#paint0_linear_31_6085)" filter="url(#filter0_d_31_6085)"/><path fill-rule="evenodd" clip-rule="evenodd" d="M20.973 18.26a3 3 0 1 0-3.945 0L16.374 20H15a1 1 0 1 0 0 2h8a1 1 0 1 0 0-2h-1.375l-.652-1.74zM17 23a1 1 0 1 0 0 2h4a1 1 0 1 0 0-2h-4z" fill="url(#paint1_linear_31_6085)"/><defs><filter id="filter0_d_31_6085" x="6" y="6.106" width="26" height="29.542" filterUnits="userSpaceOnUse" color-interpolation-filters="sRGB"><feFlood flood-opacity="0" result="BackgroundImageFix"/><feColorMatrix in="SourceAlpha" values="0 0 0 0 0 0 0 0 0 0 0 0 0 0 0 0 0 0 127 0" result="hardAlpha"/><feOffset dy="2"/><feGaussianBlur stdDeviation="2"/><feComposite in2="hardAlpha" operator="out"/><feColorMatrix values="0 0 0 0 0.133681 0 0 0 0 0.637029 0 0 0 0 0.916667 0 0 0 0.2 0"/><feBlend in2="BackgroundImageFix" result="effect1_dropShadow_31_6085"/><feBlend in="SourceGraphic" in2="effect1_dropShadow_31_6085" result="shape"/></filter><linearGradient id="paint0_linear_31_6085" x1="13" y1="9" x2="24" y2="30" gradientUnits="userSpaceOnUse"><stop stop-color="#A6DEFD"/><stop offset=".765" stop-color="#4DB9F5"/></linearGradient><linearGradient id="paint1_linear_31_6085" x1="19" y1="13" x2="19" y2="25" gradientUnits="userSpaceOnUse"><stop stop-color="#E9F6FF"/><stop offset="1" stop-color="#BEE4FF"/></linearGradient></defs></svg>