<svg width="38" height="38" viewBox="0 0 38 38" fill="none" xmlns="http://www.w3.org/2000/svg"><rect width="38" height="38" rx="19" fill="#E9EFFD"/><g filter="url(#filter0_d_31_6117)"><path d="M9 12a2 2 0 0 1 2-2h6a2 2 0 1 1 0 4h-6a2 2 0 0 1-2-2z" fill="#98A5FC"/><path d="M9 12h18a2 2 0 0 1 2 2v12a2 2 0 0 1-2 2H11a2 2 0 0 1-2-2V12z" fill="url(#paint0_linear_31_6117)"/><path d="M21 20a2 2 0 0 1 2-2h6v4h-6a2 2 0 0 1-2-2z" fill="url(#paint1_linear_31_6117)"/><circle cx="23" cy="20" r="1" fill="url(#paint2_linear_31_6117)"/></g><defs><filter id="filter0_d_31_6117" x="5" y="8" width="28" height="26" filterUnits="userSpaceOnUse" color-interpolation-filters="sRGB"><feFlood flood-opacity="0" result="BackgroundImageFix"/><feColorMatrix in="SourceAlpha" values="0 0 0 0 0 0 0 0 0 0 0 0 0 0 0 0 0 0 127 0" result="hardAlpha"/><feOffset dy="2"/><feGaussianBlur stdDeviation="2"/><feComposite in2="hardAlpha" operator="out"/><feColorMatrix values="0 0 0 0 0.216753 0 0 0 0 0.334493 0 0 0 0 0.945833 0 0 0 0.2 0"/><feBlend in2="BackgroundImageFix" result="effect1_dropShadow_31_6117"/><feBlend in="SourceGraphic" in2="effect1_dropShadow_31_6117" result="shape"/></filter><linearGradient id="paint0_linear_31_6117" x1="14" y1="11.5" x2="18.5" y2="27.5" gradientUnits="userSpaceOnUse"><stop stop-color="#8396FB"/><stop offset=".859" stop-color="#556FF6"/></linearGradient><linearGradient id="paint1_linear_31_6117" x1="25" y1="18" x2="25" y2="22" gradientUnits="userSpaceOnUse"><stop stop-color="#E9EFFD"/><stop offset="1" stop-color="#A2BBF5"/></linearGradient><linearGradient id="paint2_linear_31_6117" x1="22.5" y1="19" x2="23.829" y2="20.75" gradientUnits="userSpaceOnUse"><stop stop-color="#8396FB"/><stop offset=".771" stop-color="#556FF6"/></linearGradient></defs></svg>