<svg width="38" height="38" viewBox="0 0 38 38" fill="none" xmlns="http://www.w3.org/2000/svg">
<rect width="38" height="38" rx="19" fill="#E9EFFD"/>
<g filter="url(#filter0_d_70_5767)">
<path fill-rule="evenodd" clip-rule="evenodd" d="M11 10C9.89543 10 9 10.8954 9 12V14.5H29V12C29 10.8954 28.1046 10 27 10H11ZM29 15.5H9V26C9 27.1046 9.89543 28 11 28H27C28.1046 28 29 27.1046 29 26V15.5Z" fill="url(#paint0_linear_70_5767)"/>
</g>
<path d="M17 23H19" stroke="url(#paint1_linear_70_5767)" stroke-width="2" stroke-linecap="round" stroke-linejoin="round"/>
<path d="M13 19L15 21L13 23" stroke="url(#paint2_linear_70_5767)" stroke-width="2" stroke-linecap="round" stroke-linejoin="round"/>
<defs>
<filter id="filter0_d_70_5767" x="5" y="8" width="28" height="26" filterUnits="userSpaceOnUse" color-interpolation-filters="sRGB">
<feFlood flood-opacity="0" result="BackgroundImageFix"/>
<feColorMatrix in="SourceAlpha" type="matrix" values="0 0 0 0 0 0 0 0 0 0 0 0 0 0 0 0 0 0 127 0" result="hardAlpha"/>
<feOffset dy="2"/>
<feGaussianBlur stdDeviation="2"/>
<feComposite in2="hardAlpha" operator="out"/>
<feColorMatrix type="matrix" values="0 0 0 0 0.156406 0 0 0 0 0.291419 0 0 0 0 0.9625 0 0 0 0.2 0"/>
<feBlend mode="normal" in2="BackgroundImageFix" result="effect1_dropShadow_70_5767"/>
<feBlend mode="normal" in="SourceGraphic" in2="effect1_dropShadow_70_5767" result="shape"/>
</filter>
<linearGradient id="paint0_linear_70_5767" x1="13.5" y1="10" x2="19" y2="28" gradientUnits="userSpaceOnUse">
<stop stop-color="#9DADFF"/>
<stop offset="0.91401" stop-color="#556FF6"/>
</linearGradient>
<linearGradient id="paint1_linear_70_5767" x1="18" y1="22" x2="18" y2="24" gradientUnits="userSpaceOnUse">
<stop stop-color="#E4EBFD"/>
<stop offset="1" stop-color="#BACDFF"/>
</linearGradient>
<linearGradient id="paint2_linear_70_5767" x1="14" y1="18" x2="14" y2="24" gradientUnits="userSpaceOnUse">
<stop stop-color="#E4EBFD"/>
<stop offset="1" stop-color="#BACDFF"/>
</linearGradient>
</defs>
</svg>
